<?xml version="1.0" encoding="iso-8859-1"?>
<!-- Generator: Adobe Illustrator 19.0.0, SVG Export Plug-In . SVG Version: 6.00 Build 0)  -->
<svg version="1.1" id="Layer_1" xmlns="http://www.w3.org/2000/svg" xmlns:xlink="http://www.w3.org/1999/xlink" x="0px" y="0px"
	 viewBox="0 0 512 512" style="enable-background:new 0 0 512 512;" xml:space="preserve">
<g>
	<path style="fill:#F5AF47;" d="M472.309,411.928V224.833c0,14.933-12.105,27.039-27.04,27.039
		c-14.933,0-27.039-12.105-27.039-27.039c0,14.933-12.106,27.039-27.04,27.039c-14.931,0-27.038-12.105-27.038-27.039
		c0,14.933-12.106,27.039-27.039,27.039s-27.039-12.105-27.039-27.039c0,14.933-12.106,27.039-27.04,27.039
		c-14.932,0-27.038-12.105-27.038-27.039c0,14.933-12.106,27.039-27.04,27.039c-14.932,0-27.038-12.105-27.038-27.039
		c0,14.933-12.107,27.039-27.04,27.039c-14.933,0-27.04-12.105-27.04-27.039c0,14.933-12.105,27.039-27.038,27.039
		c-14.932,0-27.04-12.105-27.04-27.039c0,14.933-12.105,27.039-27.038,27.039c-14.934,0-27.04-12.105-27.04-27.039v187.095H7.602
		v39.467h496.796v-39.467H472.309z"/>
	<path style="fill:#F5AF47;" d="M156.794,61.431c0,0,27.102,12.962,27.102,40.062c0,17.247-12.134,31.228-27.102,31.228
		c-14.969,0-27.101-13.981-27.101-31.228C129.692,74.394,156.794,61.431,156.794,61.431z"/>
	<path style="fill:#F5AF47;" d="M256.002,61.431c0,0,27.1,12.962,27.1,40.062c0,17.247-12.134,31.228-27.1,31.228
		c-14.969,0-27.102-13.981-27.102-31.228C228.898,74.394,256.002,61.431,256.002,61.431z"/>
	<path style="fill:#F5AF47;" d="M355.207,61.431c0,0,27.101,12.962,27.101,40.062c0,17.247-12.133,31.228-27.101,31.228
		c-14.969,0-27.102-13.981-27.102-31.228C328.103,74.394,355.207,61.431,355.207,61.431z"/>
</g>
<rect x="7.602" y="411.93" style="fill:#3FA3A3;" width="496.801" height="39.467"/>
<path style="fill:#E7335B;" d="M416.56,132.721H95.441c-30.79,0-55.75,24.96-55.75,55.75v36.363
	c0,14.933,12.105,27.039,27.04,27.039c14.932,0,27.038-12.105,27.038-27.039c0,14.933,12.107,27.039,27.04,27.039
	c14.932,0,27.038-12.105,27.038-27.039c0,14.933,12.107,27.039,27.04,27.039c14.932,0,27.04-12.105,27.04-27.039
	c0,14.933,12.105,27.039,27.038,27.039c14.933,0,27.04-12.105,27.04-27.039c0,14.933,12.105,27.039,27.038,27.039
	s27.04-12.105,27.04-27.039c0,14.933,12.105,27.039,27.039,27.039c14.932,0,27.039-12.105,27.039-27.039
	c0,14.933,12.106,27.039,27.038,27.039c14.933,0,27.04-12.105,27.04-27.039c0,14.933,12.105,27.039,27.039,27.039
	c14.934,0,27.04-12.105,27.04-27.039v-36.363C472.309,157.681,447.35,132.721,416.56,132.721z"/>
<path style="fill:#871F4D;" d="M479.912,404.326V224.833V188.47c0-34.932-28.419-63.352-63.352-63.352h-33.839
	c4.503-6.55,7.19-14.741,7.19-23.626c0-31.528-30.14-46.307-31.424-46.921l-3.28-1.568l-3.28,1.568
	c-1.283,0.614-31.425,15.392-31.425,46.921c0,8.884,2.686,17.075,7.19,23.626h-44.176c4.503-6.55,7.19-14.741,7.19-23.626
	c0-31.528-30.139-46.307-31.423-46.921l-3.28-1.568l-3.28,1.568c-1.283,0.614-31.425,15.392-31.425,46.921
	c0,8.884,2.686,17.075,7.191,23.626h-44.18c4.504-6.55,7.191-14.741,7.191-23.626c0-31.528-30.141-46.307-31.425-46.921l-3.28-1.568
	l-3.28,1.568c-1.283,0.614-31.424,15.392-31.424,46.921c0,8.884,2.686,17.075,7.19,23.626H95.441
	c-34.933,0-63.352,28.42-63.352,63.352v36.363v179.493H0v54.671h512v-54.671H479.912z M335.705,101.493
	c0-16.957,13.175-27.326,19.499-31.327c6.338,4.01,19.5,14.377,19.5,31.327c0,13.027-8.748,23.626-19.499,23.626
	C344.453,125.119,335.705,114.52,335.705,101.493z M236.5,101.493c0-16.957,13.175-27.326,19.498-31.327
	c6.339,4.01,19.5,14.378,19.5,31.327c0,13.027-8.747,23.626-19.498,23.626C245.248,125.119,236.5,114.52,236.5,101.493z
	 M137.294,101.493c0-16.947,13.159-27.315,19.488-31.32c6.303,4.014,19.512,14.442,19.512,31.32c0,13.027-8.748,23.626-19.5,23.626
	S137.294,114.52,137.294,101.493z M47.294,188.471c0-26.548,21.599-48.147,48.147-48.147H416.56
	c26.548,0,48.147,21.599,48.147,48.147v36.363c0,9.377-6.676,17.225-15.525,19.041c-1.264,0.259-2.572,0.395-3.912,0.395
	c-1.34,0-2.648-0.136-3.912-0.395c-8.849-1.816-15.524-9.664-15.524-19.041h-15.204c0,9.377-6.677,17.225-15.525,19.041
	c-1.264,0.259-2.573,0.395-3.912,0.395s-2.648-0.136-3.912-0.395c-8.848-1.816-15.523-9.664-15.523-19.041h-15.204
	c0,9.377-6.675,17.225-15.524,19.041c-1.264,0.259-2.572,0.395-3.912,0.395c-1.34,0-2.648-0.136-3.912-0.395
	c-8.849-1.816-15.524-9.664-15.524-19.041H302.48c0,9.377-6.677,17.225-15.525,19.041c-1.264,0.259-2.573,0.395-3.912,0.395
	s-2.648-0.136-3.912-0.395c-8.847-1.816-15.523-9.664-15.523-19.041h-15.204c0,9.377-6.677,17.225-15.525,19.041
	c-1.264,0.259-2.573,0.395-3.912,0.395s-2.648-0.136-3.912-0.395c-8.848-1.816-15.523-9.664-15.523-19.041H194.33
	c0,9.377-6.677,17.225-15.525,19.041c-1.264,0.259-2.573,0.395-3.912,0.395s-2.648-0.136-3.912-0.395
	c-8.849-1.816-15.525-9.664-15.525-19.041h-15.204c0,9.377-6.676,17.225-15.523,19.041c-1.264,0.259-2.573,0.395-3.912,0.395
	s-2.648-0.136-3.912-0.395c-8.85-1.816-15.525-9.664-15.525-19.041H86.178c0,9.377-6.676,17.225-15.523,19.041
	c-1.264,0.259-2.573,0.395-3.912,0.395s-2.648-0.136-3.912-0.395c-8.85-1.816-15.525-9.664-15.525-19.041v-36.363H47.294z
	 M496.796,443.792H15.204V419.53h32.09h45.512v-15.204H47.294V253.493c0.011,0.007,0.021,0.013,0.032,0.02
	c0.612,0.417,1.244,0.807,1.883,1.184c0.156,0.092,0.314,0.182,0.472,0.273c0.616,0.349,1.24,0.684,1.877,0.996
	c0.042,0.02,0.082,0.044,0.124,0.064c0.674,0.325,1.363,0.624,2.06,0.907c0.169,0.069,0.341,0.136,0.512,0.203
	c0.679,0.264,1.366,0.512,2.065,0.733c0.03,0.009,0.06,0.021,0.09,0.03c0.725,0.226,1.462,0.422,2.206,0.601
	c0.182,0.044,0.365,0.086,0.548,0.128c0.738,0.165,1.481,0.313,2.234,0.431c0.017,0.002,0.031,0.006,0.048,0.008
	c0.766,0.118,1.544,0.201,2.324,0.268c0.193,0.017,0.387,0.031,0.581,0.045c0.788,0.054,1.58,0.091,2.381,0.091
	c10.924,0,20.684-5.083,27.038-13.009c6.354,7.926,16.114,13.009,27.04,13.009c10.924,0,20.684-5.083,27.038-13.009
	c6.354,7.926,16.114,13.009,27.04,13.009c10.925,0,20.685-5.083,27.04-13.009c6.353,7.926,16.113,13.009,27.038,13.009
	c10.925,0,20.685-5.083,27.04-13.009c6.353,7.926,16.114,13.009,27.038,13.009c10.925,0,20.685-5.083,27.04-13.009
	c6.353,7.926,16.113,13.009,27.039,13.009c10.925,0,20.684-5.083,27.039-13.009c6.353,7.926,16.113,13.009,27.038,13.009
	c10.925,0,20.685-5.083,27.04-13.009c6.354,7.926,16.114,13.009,27.039,13.009c0.801,0,1.593-0.038,2.381-0.091
	c0.194-0.013,0.388-0.027,0.581-0.045c0.781-0.066,1.558-0.149,2.324-0.268c0.016-0.003,0.031-0.006,0.048-0.009
	c0.754-0.117,1.497-0.266,2.233-0.431c0.184-0.042,0.366-0.083,0.549-0.128c0.743-0.179,1.481-0.375,2.206-0.601
	c0.03-0.009,0.06-0.021,0.09-0.03c0.698-0.221,1.386-0.469,2.065-0.733c0.171-0.066,0.343-0.133,0.513-0.203
	c0.695-0.283,1.385-0.581,2.058-0.907c0.043-0.02,0.084-0.044,0.127-0.065c0.637-0.311,1.26-0.647,1.874-0.995
	c0.158-0.09,0.317-0.18,0.473-0.273c0.641-0.377,1.271-0.767,1.884-1.184c0.01-0.007,0.022-0.013,0.031-0.02v120.42H168.873v15.204
	h295.834v15.207H113.082v15.204h351.626h32.089v24.263H496.796z"/>
<g>
</g>
<g>
</g>
<g>
</g>
<g>
</g>
<g>
</g>
<g>
</g>
<g>
</g>
<g>
</g>
<g>
</g>
<g>
</g>
<g>
</g>
<g>
</g>
<g>
</g>
<g>
</g>
<g>
</g>
</svg>
