<?xml version="1.0" encoding="iso-8859-1"?>
<!-- Generator: Adobe Illustrator 19.1.0, SVG Export Plug-In . SVG Version: 6.00 Build 0)  -->
<svg version="1.1" id="Capa_1" xmlns="http://www.w3.org/2000/svg" xmlns:xlink="http://www.w3.org/1999/xlink" x="0px" y="0px"
	 viewBox="0 0 469.995 469.995" style="enable-background:new 0 0 469.995 469.995;" xml:space="preserve">
<g>
	<path style="fill:#2EAAB6;" d="M241.172,85.969c6.77,5.113,15.085,7.952,23.678,7.952s16.908-2.839,23.678-7.952
		c-6.77-5.114-15.085-7.953-23.678-7.953S247.942,80.854,241.172,85.969z"/>
	<path style="fill:#2EAAB6;" d="M377.895,78.016c-8.593,0-16.908,2.839-23.678,7.953c6.77,5.113,15.085,7.952,23.678,7.952
		c8.594,0,16.909-2.839,23.678-7.952C394.804,80.854,386.489,78.016,377.895,78.016z"/>
	<path style="fill:#2EAAB6;" d="M92.1,250.857c8.593,0,16.908-2.839,23.678-7.953c-6.77-5.113-15.085-7.952-23.678-7.952
		c-8.594,0-16.909,2.839-23.678,7.952C75.191,248.019,83.506,250.857,92.1,250.857z"/>
	<path style="fill:#2EAAB6;" d="M205.145,234.952c-8.593,0-16.908,2.839-23.678,7.952c6.77,5.114,15.085,7.953,23.678,7.953
		s16.908-2.839,23.678-7.953C222.053,237.791,213.738,234.952,205.145,234.952z"/>
	<path style="fill:#FF7633;" d="M282.245,302.042c0-0.028,0-105.631,0-105.631c-0.002-0.13-0.005-0.259,0-0.388v-24.086H15v149.437
		c0,73.68,59.942,133.622,133.622,133.622s133.622-59.942,133.622-133.622V302.042z M51.802,247.928
		c-2.574-2.854-2.574-7.193,0-10.047c10.278-11.394,24.967-17.929,40.298-17.929c8.556,0,16.909,2.04,24.409,5.819
		c-1.954-4.835-4.858-9.288-8.615-13.045c-2.93-2.929-2.93-7.678-0.001-10.606c2.93-2.93,7.679-2.929,10.606-0.001
		c10.75,10.748,16.5,25.594,15.827,40.784c-0.006,0.135-0.003,0.261-0.01,0.388c-0.097,1.678-0.73,3.317-1.921,4.638
		c-10.278,11.395-24.966,17.93-40.297,17.93C76.768,265.857,62.081,259.322,51.802,247.928z M161.123,430.099h-25
		c-4.143,0-7.5-3.357-7.5-7.5s3.357-7.5,7.5-7.5h25c4.143,0,7.5,3.357,7.5,7.5S165.265,430.099,161.123,430.099z M148.623,400.099
		c-43.41,0-78.727-35.316-78.727-78.726c0-4.143,3.357-7.5,7.5-7.5h56.227c1.48,0,2.929,0.438,4.16,1.26l10.84,7.227l10.84-7.227
		c1.231-0.821,2.68-1.26,4.16-1.26h56.226c4.143,0,7.5,3.357,7.5,7.5C227.348,364.782,192.032,400.099,148.623,400.099z
		 M245.443,247.928c-10.279,11.395-24.968,17.93-40.298,17.93s-30.019-6.535-40.298-17.93c-1.196-1.327-1.829-2.974-1.914-4.644
		c-0.014-0.123-0.011-0.251-0.017-0.38c-0.673-15.191,5.077-30.038,15.827-40.786c2.928-2.928,7.677-2.929,10.606,0.001
		c2.929,2.929,2.929,7.678-0.001,10.606c-3.757,3.757-6.66,8.21-8.615,13.046c7.501-3.779,15.854-5.819,24.41-5.819
		c15.33,0,30.018,6.534,40.297,17.928C248.017,240.734,248.017,245.073,245.443,247.928z"/>
	<path style="fill:#8BEEF8;" d="M297.245,164.437v18.643c7.516-3.384,15.674-5.143,24.128-5.143
		c22.939,0,43.994,13.482,53.641,34.349c1.738,3.76,0.1,8.217-3.66,9.955c-1.02,0.471-2.09,0.694-3.143,0.694
		c-2.834,0-5.546-1.614-6.812-4.354c-7.201-15.578-22.912-25.644-40.025-25.644c-8.687,0-16.958,2.484-24.128,7.21v95.837
		c7.781,1.355,16.007,2.075,24.128,2.075c73.68,0,133.622-59.942,133.622-133.622V15H187.75v119.437c0,4.143-3.357,7.5-7.5,7.5
		c-0.003,0-0.003,15-0.003,15h109.497C293.887,156.937,297.245,160.294,297.245,164.437z M335.668,85.962
		c0.006-0.127,0.003-0.253,0.01-0.379c0.092-1.664,0.725-3.311,1.921-4.638c10.278-11.395,24.966-17.93,40.297-17.93
		c15.332,0,30.02,6.535,40.298,17.93c2.574,2.854,2.574,7.193,0,10.047c-10.278,11.395-24.967,17.929-40.298,17.929
		c-8.556,0-16.909-2.039-24.409-5.818c1.954,4.835,4.857,9.288,8.614,13.045c2.93,2.929,2.93,7.678,0.001,10.606
		c-1.465,1.465-3.385,2.197-5.304,2.197s-3.839-0.732-5.303-2.196C340.745,116.007,334.995,101.161,335.668,85.962z
		 M280.645,126.754c-2.929-2.929-2.929-7.678,0.001-10.606c3.757-3.757,6.66-8.21,8.614-13.045
		c-7.501,3.779-15.854,5.819-24.41,5.819c-15.33,0-30.018-6.534-40.297-17.928c-2.575-2.854-2.575-7.193-0.001-10.048
		c10.279-11.395,24.968-17.93,40.298-17.93s30.019,6.535,40.298,17.93c1.196,1.327,1.829,2.974,1.914,4.644
		c0.014,0.122,0.011,0.249,0.017,0.377c0.672,15.195-5.077,30.041-15.827,40.789c-1.464,1.464-3.384,2.196-5.303,2.196
		C284.029,128.951,282.11,128.219,280.645,126.754z"/>
	<path style="fill:#081C1F;" d="M351.495,126.755c1.464,1.464,3.384,2.196,5.303,2.196s3.839-0.732,5.304-2.197
		c2.929-2.929,2.929-7.678-0.001-10.606c-3.757-3.757-6.66-8.21-8.614-13.045c7.5,3.779,15.854,5.818,24.409,5.818
		c15.331,0,30.02-6.534,40.298-17.929c2.574-2.854,2.574-7.192,0-10.047c-10.278-11.395-24.966-17.93-40.298-17.93
		c-15.331,0-30.019,6.535-40.297,17.93c-1.196,1.326-1.829,2.973-1.914,4.643c-0.014,0.121-0.011,0.247-0.017,0.374
		C334.995,101.161,340.745,116.007,351.495,126.755z M354.217,85.969c6.77-5.114,15.085-7.953,23.678-7.953
		c8.594,0,16.909,2.839,23.678,7.953c-6.769,5.113-15.084,7.952-23.678,7.952C369.302,93.921,360.987,91.082,354.217,85.969z"/>
	<path style="fill:#081C1F;" d="M307.078,85.97c-0.006-0.132-0.003-0.259-0.01-0.386c-0.092-1.665-0.725-3.312-1.921-4.639
		c-10.279-11.395-24.968-17.93-40.298-17.93s-30.019,6.535-40.298,17.93c-2.574,2.854-2.574,7.193,0.001,10.048
		c10.279,11.394,24.967,17.928,40.297,17.928c8.556,0,16.909-2.039,24.41-5.819c-1.954,4.835-4.857,9.289-8.614,13.045
		c-2.93,2.929-2.93,7.678-0.001,10.606c1.465,1.465,3.384,2.197,5.304,2.197c1.919,0,3.839-0.732,5.303-2.196
		C302.001,116.007,307.751,101.161,307.078,85.97z M264.85,93.921c-8.593,0-16.908-2.839-23.678-7.952
		c6.77-5.114,15.085-7.953,23.678-7.953s16.908,2.839,23.678,7.953C281.758,91.082,273.443,93.921,264.85,93.921z"/>
	<path style="fill:#081C1F;" d="M462.495,0H180.25c-4.143,0-7.5,3.357-7.5,7.5v126.937c0,4.142,3.356,7.498,7.497,7.5
		c4.146,0,7.503-3.357,7.503-7.5V15h267.244v149.437c0,73.68-59.942,133.622-133.622,133.622c-8.121,0-16.347-0.719-24.128-2.075
		v-95.837c7.17-4.727,15.441-7.21,24.128-7.21c17.113,0,32.824,10.065,40.025,25.644c1.267,2.74,3.979,4.354,6.812,4.354
		c1.053,0,2.123-0.224,3.143-0.694c3.76-1.738,5.398-6.195,3.66-9.955c-9.646-20.866-30.701-34.349-53.641-34.349
		c-8.454,0-16.612,1.76-24.128,5.143v-18.643c0-4.143-3.357-7.5-7.5-7.5H180.248H7.5c-4.143,0-7.5,3.357-7.5,7.5v156.937
		c0,81.95,66.672,148.622,148.622,148.622s148.622-66.672,148.622-148.622v-10.187c7.856,1.225,16.048,1.872,24.128,1.872
		c81.95,0,148.622-66.672,148.622-148.622V7.5C469.995,3.357,466.637,0,462.495,0z M148.623,454.995
		C74.943,454.995,15,395.053,15,321.373V171.937h267.244v24.086c-0.005,0.129-0.002,0.259,0,0.388v105.603
		c0,0.028,0,19.359,0,19.359C282.245,395.053,222.302,454.995,148.623,454.995z"/>
	<path style="fill:#081C1F;" d="M219.848,313.873h-56.226c-1.48,0-2.929,0.438-4.16,1.26l-10.84,7.227l-10.84-7.227
		c-1.231-0.821-2.68-1.26-4.16-1.26H77.396c-4.143,0-7.5,3.357-7.5,7.5c0,43.409,35.316,78.726,78.727,78.726
		c43.409,0,78.726-35.316,78.726-78.726C227.348,317.23,223.991,313.873,219.848,313.873z M148.623,385.099
		c-32.602,0-59.564-24.608-63.288-56.226h46.018l13.11,8.74c2.52,1.68,5.801,1.68,8.32,0l13.11-8.74h46.017
		C208.186,360.49,181.224,385.099,148.623,385.099z"/>
	<path style="fill:#081C1F;" d="M161.123,415.099h-25c-4.143,0-7.5,3.357-7.5,7.5s3.357,7.5,7.5,7.5h25c4.143,0,7.5-3.357,7.5-7.5
		S165.265,415.099,161.123,415.099z"/>
	<path style="fill:#081C1F;" d="M205.145,219.952c-8.556,0-16.91,2.04-24.41,5.819c1.954-4.835,4.857-9.289,8.615-13.046
		c2.93-2.929,2.93-7.678,0.001-10.606c-2.93-2.93-7.679-2.929-10.606-0.001c-10.75,10.749-16.5,25.595-15.827,40.785
		c0.006,0.13,0.003,0.258,0.01,0.386c0.092,1.664,0.725,3.311,1.921,4.638c10.279,11.395,24.968,17.93,40.298,17.93
		s30.019-6.535,40.298-17.93c2.574-2.854,2.574-7.193-0.001-10.048C235.163,226.486,220.475,219.952,205.145,219.952z
		 M181.467,242.904c6.77-5.113,15.085-7.952,23.678-7.952s16.908,2.839,23.678,7.952c-6.77,5.114-15.085,7.953-23.678,7.953
		S188.237,248.019,181.467,242.904z"/>
	<path style="fill:#081C1F;" d="M132.397,247.928c1.191-1.321,1.824-2.959,1.913-4.621c0.015-0.143,0.012-0.269,0.018-0.395
		c0.673-15.199-5.077-30.045-15.827-40.793c-2.928-2.928-7.677-2.929-10.606,0.001c-2.929,2.929-2.929,7.678,0.001,10.606
		c3.757,3.757,6.66,8.21,8.615,13.045c-7.5-3.779-15.854-5.819-24.409-5.819c-15.331,0-30.02,6.535-40.298,17.929
		c-2.574,2.854-2.574,7.192,0,10.047c10.278,11.395,24.966,17.93,40.298,17.93C107.431,265.857,122.119,259.322,132.397,247.928z
		 M115.778,242.904c-6.77,5.114-15.085,7.953-23.678,7.953c-8.594,0-16.909-2.839-23.678-7.953
		c6.769-5.113,15.084-7.952,23.678-7.952C100.693,234.952,109.008,237.791,115.778,242.904z"/>
</g>
<g>
</g>
<g>
</g>
<g>
</g>
<g>
</g>
<g>
</g>
<g>
</g>
<g>
</g>
<g>
</g>
<g>
</g>
<g>
</g>
<g>
</g>
<g>
</g>
<g>
</g>
<g>
</g>
<g>
</g>
</svg>
