<?xml version="1.0" ?><!DOCTYPE svg  PUBLIC '-//W3C//DTD SVG 1.1//EN'  'http://www.w3.org/Graphics/SVG/1.1/DTD/svg11.dtd'><svg enable-background="new 0 0 128 128" id="Слой_1" version="1.1" viewBox="0 0 128 128" xml:space="preserve" xmlns="http://www.w3.org/2000/svg" xmlns:xlink="http://www.w3.org/1999/xlink"><g><path d="M16.6,124V14c0-5.5,4.5-10,10-10h50c5.5,0,10,4.5,10,10v110" fill="#ED6C61"/><path d="M34.6,4h-8c-5.5,0-10,4.5-10,10v110h8V14C24.6,8.5,29,4,34.6,4z" fill="#FFFFFF"/><path d="M69.6,49h-36c-2.8,0-5-2.2-5-5V21c0-2.8,2.2-5,5-5h36c2.8,0,5,2.2,5,5v23C74.6,46.8,72.3,49,69.6,49z" fill="#FFFFFF"/><path d="M121.4,4l-17.1,17.1c-1.9,1.9-2.9,4.4-2.9,7.1V39c0,2.8,2.2,5,5,5h0c2.8,0,5-2.2,5-5V24V14" fill="#A5A4AA"/></g><g><path d="M63.5,86.6c0-2.4-0.7-4.7-2.1-6.6c0,0,0,0,0-0.1l0,0l-8.8-11.7C52.4,68.1,52.2,68,52,68s-0.4,0.1-0.5,0.2   L42.8,80l0,0l0,0c0,0,0,0,0,0c-1.4,1.9-2.1,4.2-2.1,6.6C40.6,92.9,45.7,98,52,98S63.4,92.9,63.5,86.6z" fill="#FDE474"/></g><g><path d="M76.6,2.5h-50c-6.3,0-11.5,5.2-11.5,11.5v108.5H6.6c-0.8,0-1.5,0.7-1.5,1.5s0.7,1.5,1.5,1.5h90   c0.8,0,1.5-0.7,1.5-1.5s-0.7-1.5-1.5-1.5h-8.5v-67h3.5c1.9,0,3.5,1.6,3.5,3.5v40c0,3.6,2.9,6.5,6.5,6.5s6.5-2.9,6.5-6.5V45.3   c2.8-0.7,4.9-3.3,4.9-6.3V14.6l9.6-9.6c0.6-0.6,0.6-1.5,0-2.1s-1.5-0.6-2.1,0L103.3,20c-2.2,2.2-3.4,5.1-3.4,8.1V39   c0,3.1,2.2,5.7,5.1,6.4V99c0,1.9-1.6,3.5-3.5,3.5c-1.9,0-3.5-1.6-3.5-3.5V59c0-3.6-2.9-6.5-6.5-6.5h-3.5V14   C88.1,7.7,82.9,2.5,76.6,2.5z M102.9,39V28.1c0-2.3,0.9-4.4,2.5-6l4.5-4.5V39c0,1.9-1.6,3.5-3.5,3.5   C104.5,42.5,102.9,40.9,102.9,39z M18.1,122.5V14c0-4.7,3.8-8.5,8.5-8.5h50c4.7,0,8.5,3.8,8.5,8.5v108.5H18.1z" fill="#454B54"/><path d="M69.6,14.5h-36c-3.6,0-6.5,2.9-6.5,6.5v23c0,3.6,2.9,6.5,6.5,6.5h36c3.6,0,6.5-2.9,6.5-6.5V21   C76.1,17.4,73.1,14.5,69.6,14.5z M73.1,44c0,1.9-1.6,3.5-3.5,3.5h-36c-1.9,0-3.5-1.6-3.5-3.5V21c0-1.9,1.6-3.5,3.5-3.5h36   c1.9,0,3.5,1.6,3.5,3.5V44z" fill="#454B54"/><path d="M62.5,79.1c0,0-0.1-0.1-0.1-0.1l-8.8-11.7c-0.8-1-2.4-1.1-3.3,0.1L41.6,79c0,0-0.1,0.1-0.1,0.2l0,0   c-1.5,2.2-2.4,4.8-2.4,7.4c0,7.1,5.8,12.9,12.9,12.9c7.1,0,12.9-5.8,12.9-12.9C65,84,64.1,81.4,62.5,79.1   C62.6,79.1,62.6,79.1,62.5,79.1z M52,96.5c-5.5,0-9.9-4.4-9.9-9.9c0-2,0.6-4,1.8-5.6c0,0,0.1-0.1,0.1-0.1L52,70.1l8,10.7   c0,0,0,0,0,0c0,0,0,0,0,0h0c1.2,1.7,1.8,3.7,1.8,5.7C61.9,92.1,57.5,96.5,52,96.5z" fill="#454B54"/></g></svg>