<?xml version="1.0" encoding="iso-8859-1"?>
<!-- Generator: Adobe Illustrator 19.0.0, SVG Export Plug-In . SVG Version: 6.00 Build 0)  -->
<svg version="1.1" id="Layer_1" xmlns="http://www.w3.org/2000/svg" xmlns:xlink="http://www.w3.org/1999/xlink" x="0px" y="0px"
	 viewBox="0 0 164.136 164.136" style="enable-background:new 0 0 164.136 164.136;" xml:space="preserve">
<g>
	<circle style="fill:#CE3B4B;" cx="82.068" cy="82.068" r="82.068"/>
	<g>
		<g>
			<path style="fill:#F7F1E6;" d="M100.917,107.567c0,1.669-1.336,3.034-2.967,3.034H46.671c-1.631,0-2.967-1.365-2.967-3.034V40.34
				c0-1.669,1.336-3.033,2.967-3.033H97.95c1.631,0,2.967,1.364,2.967,3.033V107.567z"/>
			<path style="fill:#449F98;" d="M98.025,99.928c0,1.669-1.5,3.035-3.333,3.035H50.187c-1.834,0-3.335-1.366-3.335-3.035V44.223
				c0-1.668,1.501-3.032,3.335-3.032h44.505c1.833,0,3.333,1.364,3.333,3.032V99.928z"/>
		</g>
		<path style="fill:#E0DCD3;" d="M98.234,137.109c-15.669,0-28.416-12.748-28.416-28.416l-0.117-7.076l4.738,0.018l0.126,7.059
			c0,13.051,10.618,23.668,23.669,23.668c13.05,0,23.667-10.617,23.667-23.668V84.666h4.748v24.027
			C126.649,124.361,113.902,137.109,98.234,137.109z"/>
		<path style="fill:#F7F1E6;" d="M72.433,96.638c-17.88,0-21.797-24.303-21.797-33.667c0-3.289,1.051-5.829,3.123-7.553
			c3.932-3.271,10.058-2.184,10.316-2.134l-0.547,2.972c-0.05-0.009-5.013-0.875-7.847,1.492c-1.362,1.139-2.024,2.847-2.024,5.223
			c0,5.088,1.056,12.84,4.018,19.336c3.423,7.504,8.388,11.311,14.758,11.311V96.638z"/>
		<path style="fill:#353B5A;" d="M72.433,97.5c-6.265,0-11.654-3.025-15.589-8.752c-0.742-1.08-0.468-2.559,0.612-3.301
			c1.081-0.742,2.559-0.468,3.303,0.613c3.05,4.441,6.978,6.692,11.674,6.692c1.312,0,2.375,1.063,2.375,2.374
			C74.808,96.438,73.745,97.5,72.433,97.5z"/>
		<ellipse style="fill:#F19C35;" cx="63.369" cy="54.662" rx="3.884" ry="2.697"/>
		<path style="fill:#F7F1E6;" d="M71.894,96.627v-3.021c6.37,0,11.336-3.805,14.758-11.311c2.963-6.496,4.019-14.246,4.019-19.335
			c0-2.381-0.665-4.092-2.032-5.229c-2.811-2.338-7.787-1.494-7.836-1.486l-0.55-2.971c0.258-0.049,6.385-1.137,10.317,2.135
			c2.071,1.723,3.123,4.264,3.123,7.552C93.692,72.324,89.776,96.627,71.894,96.627z"/>
		<path style="fill:#353B5A;" d="M71.894,97.49c-1.312,0-2.373-1.063-2.373-2.373c0-1.312,1.062-2.375,2.373-2.375
			c4.696,0,8.625-2.251,11.676-6.693c0.742-1.08,2.221-1.354,3.302-0.611c1.08,0.742,1.355,2.221,0.612,3.301
			C83.548,94.463,78.159,97.49,71.894,97.49z"/>
		<ellipse style="fill:#F19C35;" cx="80.959" cy="54.652" rx="3.885" ry="2.697"/>
		<path style="fill:#353B5A;" d="M72.083,105.35c-1.305,0-2.367-1.055-2.373-2.361l-0.037-6.51
			c-0.008-1.312,1.049-2.379,2.361-2.387c0.004,0,0.008,0,0.014,0c1.304,0,2.365,1.053,2.373,2.361l0.036,6.51
			c0.007,1.311-1.049,2.379-2.361,2.387C72.092,105.35,72.088,105.35,72.083,105.35z"/>
		<g>
			<path style="fill:#353B5A;" d="M124.275,87.545c-1.31,0-2.374-1.063-2.374-2.375v-4.604c0-1.312,1.063-2.375,2.374-2.375
				c1.312,0,2.374,1.063,2.374,2.375v4.604C126.649,86.481,125.586,87.545,124.275,87.545z"/>
			<g>
				<circle style="fill:#E0DCD3;" cx="124.17" cy="71.273" r="10.503"/>
				<circle style="fill:#F7F1E6;" cx="124.171" cy="71.273" r="6.341"/>
			</g>
		</g>
	</g>
</g>
<g>
</g>
<g>
</g>
<g>
</g>
<g>
</g>
<g>
</g>
<g>
</g>
<g>
</g>
<g>
</g>
<g>
</g>
<g>
</g>
<g>
</g>
<g>
</g>
<g>
</g>
<g>
</g>
<g>
</g>
</svg>
