<?xml version="1.0" encoding="iso-8859-1"?>
<!-- Generator: Adobe Illustrator 19.0.0, SVG Export Plug-In . SVG Version: 6.00 Build 0)  -->
<svg version="1.1" id="Layer_1" xmlns="http://www.w3.org/2000/svg" xmlns:xlink="http://www.w3.org/1999/xlink" x="0px" y="0px"
	 viewBox="0 0 512 512" style="enable-background:new 0 0 512 512;" xml:space="preserve">
<path style="fill:#E04F5F;" d="M389.616,472.672c19.184,0,34.88-15.696,34.88-34.88V122.208c0-19.184-15.696-34.88-34.88-34.88
	h-65.76h-32H122.32c-19.184,0-34.88,15.696-34.88,34.88v315.584c0,19.184,15.696,34.88,34.88,34.88h17.072h32h169.152h32
	L389.616,472.672L389.616,472.672z M87.44,197.36v-32h337.056v32H87.44z"/>
<rect x="139.392" y="472.672" width="32" height="39.328"/>
<rect x="340.544" y="472.672" width="32" height="39.328"/>
<polygon points="196.16,87.328 228.16,87.328 228.16,32 291.856,32 291.856,87.328 323.856,87.328 323.856,32 349.296,32 349.296,0 
	162.64,0 162.64,32 196.16,32 "/>
<rect x="87.44" y="165.36" width="337.12" height="32"/>
<g>
</g>
<g>
</g>
<g>
</g>
<g>
</g>
<g>
</g>
<g>
</g>
<g>
</g>
<g>
</g>
<g>
</g>
<g>
</g>
<g>
</g>
<g>
</g>
<g>
</g>
<g>
</g>
<g>
</g>
</svg>
