<?xml version="1.0" encoding="iso-8859-1"?>
<!-- Generator: Adobe Illustrator 19.0.0, SVG Export Plug-In . SVG Version: 6.00 Build 0)  -->
<svg version="1.1" id="Capa_1" xmlns="http://www.w3.org/2000/svg" xmlns:xlink="http://www.w3.org/1999/xlink" x="0px" y="0px"
	 viewBox="0 0 58 58" style="enable-background:new 0 0 58 58;" xml:space="preserve">
<g>
	<polygon style="fill:#F29C1F;" points="26,58 2,58 8,48 20,48 	"/>
	<polygon style="fill:#F7CE4D;" points="2,26 8,14 8,48 2,58 	"/>
	<polygon style="fill:#F29C1F;" points="56,58 32,58 38,48 50,48 	"/>
	<polygon style="fill:#F0C419;" points="17,43 17,14 8,14 8,48 20,48 20,43 	"/>
	<polygon style="fill:#E57E25;" points="32,43 32,58 38,48 38,43 	"/>
	<polygon style="fill:#F7CE4D;" points="50,14 50,29 52,29 52,33 50,33 50,48 56,58 56,26 	"/>
	<polygon style="fill:#F0C419;" points="48,33 48,29 50,29 50,14 41,14 41,43 38,43 38,48 50,48 50,33 	"/>
	<polygon style="fill:#E57E25;" points="20,43 20,48 26,58 26,43 	"/>
	<polygon style="fill:#F7CE4D;" points="41,11 35,0 35,33 41,43 	"/>
	<polygon style="fill:#F7CE4D;" points="23,33 23,30 23,0 17,11 17,43 21.875,34.875 	"/>
	<polygon style="fill:#F29C1F;" points="35,33 31,33 31,35 27,35 27,33 26,33 23,33 21.875,34.875 17,43 41,43 	"/>
	<polygon style="fill:#F0C419;" points="23,0 23,30 23,33 27,33 27,31 31,31 31,33 35,33 35,0 	"/>
	<g>
		<rect x="48" y="29" style="fill:#F0C419;" width="4" height="4"/>
		<path style="fill:#FFFFFF;" d="M53,34h-6v-6h6V34z M49,32h2v-2h-2V32z"/>
	</g>
	<path style="fill:#FFFFFF;" d="M46,36c-0.256,0-0.512-0.098-0.707-0.293c-0.391-0.391-0.391-1.023,0-1.414l2-2
		c0.391-0.391,1.023-0.391,1.414,0s0.391,1.023,0,1.414l-2,2C46.512,35.902,46.256,36,46,36z"/>
	<path style="fill:#FFFFFF;" d="M54,36c-0.256,0-0.512-0.098-0.707-0.293l-2-2c-0.391-0.391-0.391-1.023,0-1.414
		s1.023-0.391,1.414,0l2,2c0.391,0.391,0.391,1.023,0,1.414C54.512,35.902,54.256,36,54,36z"/>
	<path style="fill:#FFFFFF;" d="M52,30c-0.256,0-0.512-0.098-0.707-0.293c-0.391-0.391-0.391-1.023,0-1.414l2-2
		c0.391-0.391,1.023-0.391,1.414,0s0.391,1.023,0,1.414l-2,2C52.512,29.902,52.256,30,52,30z"/>
	<path style="fill:#FFFFFF;" d="M48,30c-0.256,0-0.512-0.098-0.707-0.293l-2-2c-0.391-0.391-0.391-1.023,0-1.414
		s1.023-0.391,1.414,0l2,2c0.391,0.391,0.391,1.023,0,1.414C48.512,29.902,48.256,30,48,30z"/>
	<g>
		<rect x="27" y="31" style="fill:#F0C419;" width="4" height="4"/>
		<path style="fill:#FFFFFF;" d="M32,36h-6v-6h6V36z M28,34h2v-2h-2V34z"/>
	</g>
	<path style="fill:#FFFFFF;" d="M25,38c-0.256,0-0.512-0.098-0.707-0.293c-0.391-0.391-0.391-1.023,0-1.414l2-2
		c0.391-0.391,1.023-0.391,1.414,0s0.391,1.023,0,1.414l-2,2C25.512,37.902,25.256,38,25,38z"/>
	<path style="fill:#FFFFFF;" d="M33,38c-0.256,0-0.512-0.098-0.707-0.293l-2-2c-0.391-0.391-0.391-1.023,0-1.414
		s1.023-0.391,1.414,0l2,2c0.391,0.391,0.391,1.023,0,1.414C33.512,37.902,33.256,38,33,38z"/>
	<path style="fill:#FFFFFF;" d="M31,32c-0.256,0-0.512-0.098-0.707-0.293c-0.391-0.391-0.391-1.023,0-1.414l2-2
		c0.391-0.391,1.023-0.391,1.414,0s0.391,1.023,0,1.414l-2,2C31.512,31.902,31.256,32,31,32z"/>
	<path style="fill:#FFFFFF;" d="M27,32c-0.256,0-0.512-0.098-0.707-0.293l-2-2c-0.391-0.391-0.391-1.023,0-1.414
		s1.023-0.391,1.414,0l2,2c0.391,0.391,0.391,1.023,0,1.414C27.512,31.902,27.256,32,27,32z"/>
</g>
<g>
</g>
<g>
</g>
<g>
</g>
<g>
</g>
<g>
</g>
<g>
</g>
<g>
</g>
<g>
</g>
<g>
</g>
<g>
</g>
<g>
</g>
<g>
</g>
<g>
</g>
<g>
</g>
<g>
</g>
</svg>
