<?xml version="1.0" ?><!DOCTYPE svg  PUBLIC '-//W3C//DTD SVG 1.1//EN'  'http://www.w3.org/Graphics/SVG/1.1/DTD/svg11.dtd'><svg enable-background="new 0 0 128 128" version="1.1" viewBox="0 0 128 128" xml:space="preserve" xmlns="http://www.w3.org/2000/svg" xmlns:xlink="http://www.w3.org/1999/xlink"><g id="Слой_1"><g><path d="M64,124.9L64,124.9L64,124.9c-28.7-8.2-48.6-34.5-48.6-64.4V14c0-5.5,4.5-10,10-10h77.1    c5.5,0,10,4.5,10,10v46.6C112.6,90.5,92.7,116.7,64,124.9z" fill="#CCCCCC"/><path d="M64,114.5c-22.8-7.8-38.6-29.6-38.6-53.9V16c0-1.1,0.9-2,2-2h73.1c1.1,0,2,0.9,2,2v44.6    C102.6,84.9,86.8,106.7,64,114.5z" fill="#FFFFFF"/><path d="M29.9,60.6V14c0-5.5,4.5-10,10-10H25.4c-5.5,0-10,4.5-10,10v46.6c0,29.9,19.8,56.2,48.6,64.4h0h0    c2.5-0.7,4.9-1.6,7.2-2.5C46.4,112.2,29.9,87.9,29.9,60.6z" fill="#FDFDFE"/><polygon fill="#F37C87" points="89,47.7 72.3,47.7 72.3,31 55.7,31 55.7,47.7 39,47.7 39,64.3 55.7,64.3 55.7,81 72.3,81     72.3,64.3 89,64.3   "/><path d="M102.6,4H64v120.9h0c28.7-8.2,48.6-34.5,48.6-64.4V14C112.6,8.5,108.1,4,102.6,4z" fill="#FFFFFF" opacity="0.3"/><path d="M27.4,12.5c-1.9,0-3.5,1.6-3.5,3.5v44.6c0,25,15.9,47.2,39.6,55.3c0.2,0.1,0.3,0.1,0.5,0.1s0.3,0,0.5-0.1    c23.7-8.1,39.6-30.3,39.6-55.3V16c0-1.9-1.6-3.5-3.5-3.5H27.4z M101.1,16v44.6c0,23.5-14.9,44.5-37.1,52.3    c-22.2-7.8-37.1-28.8-37.1-52.3V16c0-0.3,0.2-0.5,0.5-0.5h73.1C100.8,15.5,101.1,15.7,101.1,16z" fill="#454B54"/><path d="M89,46.2H73.8V31c0-0.8-0.7-1.5-1.5-1.5H55.7c-0.8,0-1.5,0.7-1.5,1.5v15.2H39c-0.8,0-1.5,0.7-1.5,1.5v16.7    c0,0.8,0.7,1.5,1.5,1.5h15.2V81c0,0.8,0.7,1.5,1.5,1.5h16.7c0.8,0,1.5-0.7,1.5-1.5V65.8H89c0.8,0,1.5-0.7,1.5-1.5V47.7    C90.5,46.8,89.8,46.2,89,46.2z M87.5,62.8H72.3c-0.8,0-1.5,0.7-1.5,1.5v15.2H57.2V64.3c0-0.8-0.7-1.5-1.5-1.5H40.5V49.2h15.2    c0.8,0,1.5-0.7,1.5-1.5V32.5h13.7v15.2c0,0.8,0.7,1.5,1.5,1.5h15.2V62.8z" fill="#454B54"/><path d="M25.4,2.5c-6.3,0-11.5,5.2-11.5,11.5v46.6c0,30.4,20.4,57.5,49.7,65.8c0.1,0,0.3,0.1,0.4,0.1    s0.3,0,0.4-0.1c29.2-8.4,49.7-35.4,49.7-65.8V14c0-6.3-5.2-11.5-11.5-11.5H25.4z M111.1,14v46.6c0,28.9-19.3,54.7-47.1,62.8    c-27.7-8.1-47.1-33.9-47.1-62.8V14c0-4.7,3.8-8.5,8.5-8.5h77.1C107.2,5.5,111.1,9.3,111.1,14z" fill="#454B54"/></g></g></svg>