<?xml version="1.0" encoding="iso-8859-1"?>
<!-- Generator: Adobe Illustrator 19.0.0, SVG Export Plug-In . SVG Version: 6.00 Build 0)  -->
<svg version="1.1" id="Layer_1" xmlns="http://www.w3.org/2000/svg" xmlns:xlink="http://www.w3.org/1999/xlink" x="0px" y="0px"
	 viewBox="0 0 512 512" style="enable-background:new 0 0 512 512;" xml:space="preserve">
<circle style="fill:#E16B5A;" cx="256" cy="256" r="256"/>
<path style="fill:#354D59;" d="M432,355.556c0,11.292-9.156,20.444-20.444,20.444H100.448c-11.292,0-20.444-9.152-20.444-20.444
	v-87.112c0-11.292,9.156-20.444,20.444-20.444h311.108c11.292,0,20.444,9.152,20.444,20.444V355.556z"/>
<path style="fill:#2E424D;" d="M411.556,248h-16c11.292,0,20.444,9.152,20.444,20.444v87.108c0,11.288-9.156,20.44-20.444,20.44h16
	c11.292,0,20.444-9.152,20.444-20.44v-87.108C432,257.152,422.844,248,411.556,248z"/>
<path style="fill:#E6E6E6;" d="M264,200c0,4.416-3.584,8-8,8l0,0c-4.416,0-8-3.584-8-8v-88c0-4.416,3.584-8,8-8l0,0
	c4.416,0,8,3.584,8,8V200z"/>
<g>
	<rect x="248" y="120" style="fill:#B3B3B3;" width="16" height="4"/>
	<rect x="248" y="184" style="fill:#B3B3B3;" width="16" height="4"/>
</g>
<path style="fill:#CCCCCC;" d="M240,200v-8c0-2.2,1.8-4,4-4h24c2.2,0,4,1.8,4,4v8H240z"/>
<path style="fill:#263740;" d="M432,307.556c0,11.292-9.156,20.444-20.444,20.444H100.448c-11.292,0-20.444-9.156-20.444-20.444
	v-87.108c0-11.292,9.156-20.444,20.444-20.444h311.108c11.292,0,20.444,9.156,20.444,20.444V307.556z"/>
<path style="fill:#1E2C33;" d="M411.556,200h-16c11.292,0,20.444,9.156,20.444,20.444v87.112c0,11.288-9.156,20.44-20.444,20.44h16
	c11.292,0,20.444-9.156,20.444-20.44v-87.112C432,209.156,422.844,200,411.556,200z"/>
<g>
	<path style="fill:#E6E6E6;" d="M223.028,99.028c0,1.024-0.392,2.048-1.172,2.828C218.08,105.636,216,110.66,216,116
		c0,5.344,2.08,10.364,5.856,14.144c1.564,1.564,1.564,4.092,0,5.656c-1.56,1.564-4.092,1.564-5.656,0
		c-5.288-5.288-8.2-12.32-8.2-19.8s2.912-14.508,8.2-19.8c1.564-1.564,4.092-1.564,5.656,0
		C222.64,96.984,223.028,98.004,223.028,99.028z"/>
	<path style="fill:#E6E6E6;" d="M211.716,87.716c0,1.024-0.392,2.048-1.172,2.828c-14.032,14.036-14.028,36.872,0,50.916
		c1.564,1.564,1.564,4.088,0,5.656c-1.564,1.564-4.092,1.564-5.656,0c-17.156-17.156-17.156-45.072,0-62.224
		c1.564-1.564,4.092-1.564,5.656,0C211.324,85.668,211.716,86.692,211.716,87.716z"/>
	<path style="fill:#E6E6E6;" d="M200.404,76.404c0,1.024-0.392,2.048-1.172,2.828C189.412,89.052,184,102.108,184,116
		s5.412,26.948,15.232,36.768c1.564,1.564,1.564,4.092,0,5.656s-4.092,1.564-5.656,0C182.244,147.096,176,132.028,176,116
		s6.244-31.096,17.576-42.424c1.564-1.564,4.092-1.564,5.656,0C200.012,74.356,200.404,75.38,200.404,76.404z"/>
	<path style="fill:#E6E6E6;" d="M284.972,99.028c0,1.024,0.392,2.048,1.172,2.828C289.92,105.636,292,110.66,292,116
		c0,5.344-2.08,10.364-5.856,14.144c-1.568,1.564-1.568,4.092,0,5.656c1.56,1.564,4.088,1.564,5.656,0
		c5.284-5.288,8.2-12.32,8.2-19.8s-2.916-14.508-8.2-19.8c-1.568-1.564-4.092-1.564-5.656,0
		C285.36,96.984,284.972,98.004,284.972,99.028z"/>
	<path style="fill:#E6E6E6;" d="M296.28,87.716c0,1.024,0.396,2.048,1.172,2.828c14.036,14.036,14.032,36.872,0,50.916
		c-1.564,1.564-1.564,4.088,0,5.656c1.568,1.564,4.092,1.564,5.656,0c17.156-17.156,17.156-45.072,0-62.224
		c-1.564-1.564-4.088-1.564-5.656,0C296.676,85.668,296.28,86.692,296.28,87.716z"/>
	<path style="fill:#E6E6E6;" d="M307.592,76.404c0,1.024,0.396,2.048,1.172,2.828C318.584,89.052,324,102.108,324,116
		s-5.416,26.948-15.236,36.768c-1.568,1.564-1.568,4.092,0,5.656s4.088,1.564,5.656,0C325.756,147.096,332,132.028,332,116
		s-6.244-31.096-17.58-42.424c-1.568-1.564-4.088-1.564-5.656,0C307.988,74.356,307.592,75.38,307.592,76.404z"/>
</g>
<circle style="fill:#CC584C;" cx="128" cy="352" r="4"/>
<circle style="fill:#F5F5F5;" cx="328" cy="352" r="4"/>
<circle style="fill:#96E652;" cx="340" cy="352" r="4"/>
<circle style="fill:#F5F5F5;" cx="352" cy="352" r="4"/>
<g>
	<circle style="fill:#96E652;" cx="364" cy="352" r="4"/>
	<circle style="fill:#96E652;" cx="376" cy="352" r="4"/>
</g>
<g>
	<path style="fill:#242424;" d="M160,376v4c0,2.2-1.8,4-4,4h-24c-2.2,0-4-1.8-4-4v-4H160z"/>
	<path style="fill:#242424;" d="M384,376v4c0,2.2-1.8,4-4,4h-24c-2.2,0-4-1.8-4-4v-4H384z"/>
</g>
<path style="fill:#664B24;" d="M34.332,384C78.604,460.496,161.26,512,256,512c94.744,0,177.4-51.504,221.668-128H34.332z"/>
<path style="fill:#997136;" d="M475.264,388c0.804-1.332,1.624-2.652,2.404-4H34.332c0.78,1.348,1.6,2.668,2.404,4H475.264z"/>
<g>
</g>
<g>
</g>
<g>
</g>
<g>
</g>
<g>
</g>
<g>
</g>
<g>
</g>
<g>
</g>
<g>
</g>
<g>
</g>
<g>
</g>
<g>
</g>
<g>
</g>
<g>
</g>
<g>
</g>
</svg>
