<?xml version="1.0" encoding="utf-8"?>
<!-- Generator: Adobe Illustrator 23.0.3, SVG Export Plug-In . SVG Version: 6.00 Build 0)  -->
<svg version="1.1" id="Layer_1" xmlns="http://www.w3.org/2000/svg" xmlns:xlink="http://www.w3.org/1999/xlink" x="0px" y="0px"
	 viewBox="0 0 604 604" style="enable-background:new 0 0 604 604;" xml:space="preserve">
<style type="text/css">
	.st0{fill:url(#SVGID_1_);}
</style>
<linearGradient id="SVGID_1_" gradientUnits="userSpaceOnUse" x1="39.5356" y1="302.1249" x2="561.3599" y2="302.1249">
	<stop  offset="0" style="stop-color:#804D85"/>
	<stop  offset="1" style="stop-color:#41BDBD"/>
</linearGradient>
<path class="st0" d="M506.9,19H344.8c-44.4,0-80.4,36-80.4,80.4v144.4H154.5c-44.4,0-80.4,36-80.4,80.4v164.2l-23.4,0
	c-6.2,0-11.2,5-11.2,11.2v39.8c0,25.3,20.5,45.8,45.8,45.8h163.1v0c0.4,0,0.8,0,1.2,0c20.5,0,37.1-16.7,37.2-37.2V354.5h69.6
	c12.1,26.6,41.1,41.1,69.6,34.9s48.9-31.4,48.9-60.6V143.5h75.2c6.2,0,11.2-5,11.2-11.2V73.5C561.3,43.4,537,19,506.9,19z
	 M85.4,562.8c-12.9,0-23.3-10.5-23.4-23.4v-28.6l150.5-0.2v37.5c0,5.1,1,10.1,3,14.7H85.4z M264.4,548.1
	c-0.1,8.1-6.6,14.6-14.7,14.6c-8.1,0-14.6-6.5-14.7-14.6v-48.7c0-6.2-5-11.2-11.2-11.2h0l-127.1,0.2V324.2c0-32,26-57.9,57.9-57.9
	h120.2c-6.8,9.3-10.4,20.5-10.4,32V548.1z M286.8,332v-33.7c0-17.7,14.3-32,32-32c17.7,0,32,14.3,32,32v30.5c0,1.1,0,2.2,0.1,3.3
	H286.8z M452.4,73.5v255.3c0.1,14.2-7.4,27.3-19.7,34.4c-12.3,7.1-27.4,7.1-39.7,0c-12.3-7.1-19.8-20.3-19.7-34.4v-30.5
	c0-28.7-22.3-52.5-51-54.3v-0.1h-35.5V99.4c0-32,26-57.9,57.9-57.9h118.1C456.1,50.8,452.4,62,452.4,73.5z M538.9,121h-64V73.5
	c0-17.7,14.3-32,32-32s32,14.3,32,32V121z M415.4,77.1h-93.8c-6.2,0-11.2,5-11.2,11.2c0,6.2,5,11.2,11.2,11.2h93.8
	c6.2,0,11.2-5,11.2-11.2C426.7,82.2,421.7,77.1,415.4,77.1z M415.4,119.5h-93.8c-6.2,0-11.2,5-11.2,11.2c0,6.2,5,11.2,11.2,11.2
	h93.8c6.2,0,11.2-5,11.2-11.2C426.7,124.5,421.7,119.5,415.4,119.5z M415.4,164.9h-93.8c-6.2,0-11.2,5-11.2,11.2
	c0,6.2,5,11.2,11.2,11.2h93.8c6.2,0,11.2-5,11.2-11.2C426.7,169.9,421.7,164.9,415.4,164.9z M370.1,210.3h-48.4
	c-6.2,0-11.2,5-11.2,11.2c0,6.2,5,11.2,11.2,11.2h48.4c6.2,0,11.2-5,11.2-11.2C381.3,215.3,376.3,210.3,370.1,210.3z M132.5,323.1
	h31.2c6.2,0,11.2-5,11.2-11.2c0-6.2-5-11.2-11.2-11.2h-31.2c-6.2,0-11.2,5-11.2,11.2C121.2,318.1,126.3,323.1,132.5,323.1z
	 M226.3,323.1c6.2,0,11.2-5,11.2-11.2c0-6.2-5-11.2-11.2-11.2h-31.2c-6.2,0-11.2,5-11.2,11.2c0,6.2,5,11.2,11.2,11.2H226.3z
	 M165.8,346h-33.3c-6.2,0-11.2,5-11.2,11.2c0,6.2,5,11.2,11.2,11.2h33.3c6.2,0,11.2-5,11.2-11.2C177,351.1,172,346,165.8,346z
	 M163.1,414.5c4.1,0,7.5-3.4,7.5-7.5c0-4.1-3.4-7.5-7.5-7.5h-42.3c-4.1,0-7.5,3.4-7.5,7.5c0,4.1,3.4,7.5,7.5,7.5h12.1
	c3.4,0,6.6,1.6,8.6,4.4h-20.7c-4.1,0-7.5,3.4-7.5,7.5s3.4,7.5,7.5,7.5H139c-1.8,1.3-3.9,1.9-6.1,1.9h-12.1c-3.1,0-5.8,1.9-7,4.7
	c-1.1,2.8-0.4,6.1,1.8,8.2l30.3,28.6c3,2.8,7.8,2.7,10.6-0.3c2.8-3,2.7-7.8-0.3-10.6l-17.3-16.4c8.4-2,15.2-8.1,18.1-16.2h6.1
	c4.1,0,7.5-3.4,7.5-7.5s-3.4-7.5-7.5-7.5h-5.4c-0.4-1.5-0.9-3-1.5-4.4H163.1z M238,414.5c4.1,0,7.5-3.4,7.5-7.5
	c0-4.1-3.4-7.5-7.5-7.5h-42.3c-4.1,0-7.5,3.4-7.5,7.5c0,4.1,3.4,7.5,7.5,7.5h12.1c3.4,0,6.6,1.6,8.6,4.4h-20.7
	c-4.1,0-7.5,3.4-7.5,7.5s3.4,7.5,7.5,7.5h18.2c-1.8,1.3-3.9,1.9-6.1,1.9h-12.1c-3.1,0-5.8,1.9-7,4.7c-1.1,2.8-0.4,6.1,1.8,8.2
	l30.3,28.6c3,2.8,7.8,2.7,10.6-0.3c2.8-3,2.7-7.8-0.3-10.6l-17.3-16.4c8.4-2,15.2-8.1,18.1-16.2h6.1c4.1,0,7.5-3.4,7.5-7.5
	s-3.4-7.5-7.5-7.5h-5.4c-0.4-1.5-0.9-3-1.5-4.4H238z"/>
</svg>
