<?xml version="1.0" encoding="utf-8"?>
<!-- Generator: Adobe Illustrator 18.0.0, SVG Export Plug-In . SVG Version: 6.00 Build 0)  -->
<!DOCTYPE svg PUBLIC "-//W3C//DTD SVG 1.1//EN" "http://www.w3.org/Graphics/SVG/1.1/DTD/svg11.dtd">
<svg version="1.1" id="Layer_1" xmlns="http://www.w3.org/2000/svg" xmlns:xlink="http://www.w3.org/1999/xlink" x="0px" y="0px"
	 viewBox="0 0 76.3 77" enable-background="new 0 0 76.3 77" xml:space="preserve">
<g>
	<path fill-rule="evenodd" clip-rule="evenodd" fill="#04B2C8" d="M3.1,43.2l40-40c2.9-2.9,7.6-2.8,10.5,0.1l20.1,20.1
		c2.9,2.9,3,7.7,0.1,10.5l-40,40c-2.9,2.9-7.6,2.8-10.5-0.1L3.2,53.7C0.3,50.8,0.3,46.1,3.1,43.2z"/>
	<path fill-rule="evenodd" clip-rule="evenodd" fill="#0595A8" d="M63.7,13.4l10.1,10.1c2.9,2.9,3,7.7,0.1,10.5l-40,40
		c-2.9,2.9-7.6,2.8-10.5-0.1L13.3,63.8L63.7,13.4z"/>
	<g>
		<g>
			<circle fill-rule="evenodd" clip-rule="evenodd" fill="#FBAF39" cx="31.6" cy="31.7" r="7.6"/>
			<path fill-rule="evenodd" clip-rule="evenodd" fill="#FFCD83" d="M35.2,37.4c-2.6,1.7-6.1,1.4-8.4-0.9c-1-1-1.7-2.3-1.9-3.7
				C26.6,35.6,29.2,39,35.2,37.4z"/>
			<path fill-rule="evenodd" clip-rule="evenodd" fill="#E98C24" d="M26.2,26.3c0.2-0.2,0.5-0.5,0.7-0.7l10.6,10.6
				c-0.2,0.3-0.4,0.5-0.7,0.7c-0.2,0.2-0.5,0.5-0.7,0.7L25.6,27.1C25.8,26.8,26,26.5,26.2,26.3z"/>
		</g>
		<g>
			<circle fill-rule="evenodd" clip-rule="evenodd" fill="#E98C24" cx="45.4" cy="45.5" r="7.6"/>
			<path fill-rule="evenodd" clip-rule="evenodd" fill="#FBAF39" d="M49.1,51.2c-2.6,1.7-6.1,1.4-8.4-0.9c-1-1-1.7-2.3-1.9-3.7
				C40.4,49.5,43,52.9,49.1,51.2z"/>
			<path fill-rule="evenodd" clip-rule="evenodd" fill="#DA7627" d="M40.1,40.2c0.2-0.2,0.5-0.5,0.7-0.7l10.6,10.6
				c-0.2,0.3-0.4,0.5-0.7,0.7c-0.2,0.2-0.5,0.5-0.7,0.7L39.4,40.9C39.6,40.7,39.8,40.4,40.1,40.2z"/>
		</g>
	</g>
	<g>
		<g>
			<g>
				<circle fill-rule="evenodd" clip-rule="evenodd" fill="#FBAF39" cx="16.2" cy="47" r="7.6"/>
				<path fill-rule="evenodd" clip-rule="evenodd" fill="#FFCD83" d="M19.8,52.7c-2.6,1.7-6.1,1.4-8.4-0.9c-1-1-1.7-2.3-1.9-3.7
					C11.2,51,13.8,54.4,19.8,52.7z"/>
				<path fill-rule="evenodd" clip-rule="evenodd" fill="#E98C24" d="M10.8,41.7c0.2-0.2,0.5-0.5,0.7-0.7l10.6,10.6
					c-0.2,0.3-0.4,0.5-0.7,0.7c-0.2,0.2-0.5,0.5-0.7,0.7L10.2,42.4C10.4,42.2,10.6,41.9,10.8,41.7z"/>
			</g>
			<g>
				<circle fill-rule="evenodd" clip-rule="evenodd" fill="#E98C24" cx="30.1" cy="60.9" r="7.6"/>
				<path fill-rule="evenodd" clip-rule="evenodd" fill="#FBAF39" d="M33.7,66.6c-2.6,1.7-6.1,1.4-8.4-0.9c-1-1-1.7-2.3-1.9-3.7
					C25,64.9,27.6,68.2,33.7,66.6z"/>
				<path fill-rule="evenodd" clip-rule="evenodd" fill="#DA7627" d="M24.7,55.5c0.2-0.2,0.5-0.5,0.7-0.7l10.6,10.6
					c-0.2,0.3-0.4,0.5-0.7,0.7c-0.2,0.2-0.5,0.5-0.7,0.7L24.1,56.3C24.3,56,24.5,55.8,24.7,55.5z"/>
			</g>
		</g>
		<g>
			<g>
				<circle fill-rule="evenodd" clip-rule="evenodd" fill="#FBAF39" cx="46.9" cy="16.3" r="7.6"/>
				<path fill-rule="evenodd" clip-rule="evenodd" fill="#FFCD83" d="M50.6,22c-2.6,1.7-6.1,1.4-8.4-0.9c-1-1-1.7-2.3-1.9-3.7
					C41.9,20.3,44.5,23.6,50.6,22z"/>
				<path fill-rule="evenodd" clip-rule="evenodd" fill="#E98C24" d="M41.6,10.9c0.2-0.2,0.5-0.5,0.7-0.7l10.6,10.6
					c-0.2,0.3-0.4,0.5-0.7,0.7c-0.2,0.2-0.5,0.5-0.7,0.7L40.9,11.7C41.1,11.4,41.3,11.2,41.6,10.9z"/>
			</g>
			<g>
				<circle fill-rule="evenodd" clip-rule="evenodd" fill="#E98C24" cx="60.8" cy="30.2" r="7.6"/>
				<path fill-rule="evenodd" clip-rule="evenodd" fill="#FBAF39" d="M64.4,35.9c-2.6,1.7-6.1,1.4-8.4-0.9c-1-1-1.7-2.3-1.9-3.7
					C55.8,34.1,58.4,37.5,64.4,35.9z"/>
				<path fill-rule="evenodd" clip-rule="evenodd" fill="#DA7627" d="M55.5,24.8c0.2-0.2,0.5-0.5,0.7-0.7l10.6,10.6
					c-0.2,0.3-0.4,0.5-0.7,0.7c-0.2,0.2-0.5,0.5-0.7,0.7L54.8,25.5C55,25.3,55.2,25,55.5,24.8z"/>
			</g>
		</g>
	</g>
</g>
</svg>
