<?xml version="1.0" ?><!DOCTYPE svg  PUBLIC '-//W3C//DTD SVG 1.1//EN'  'http://www.w3.org/Graphics/SVG/1.1/DTD/svg11.dtd'><svg enable-background="new 0 0 128 128" id="Слой_1" version="1.1" viewBox="0 0 128 128" xml:space="preserve" xmlns="http://www.w3.org/2000/svg" xmlns:xlink="http://www.w3.org/1999/xlink"><polygon fill="#A5A4AA" points="104,80.9 64,80.9 64,87.2 104,91.4 "/><polygon fill="#FFFFFF" points="97,90.6 104,91.4 104,80.9 97,80.9 "/><rect fill="#A5A4AA" height="120" width="20" x="104" y="4"/><g><rect fill="#FDE474" height="21.2" transform="matrix(0.3332 0.9429 -0.9429 0.3332 140.3245 -62.0075)" width="5" x="111.5" y="57.6"/></g><g><rect fill="#FDE474" height="21.2" transform="matrix(0.3332 0.9429 -0.9429 0.3332 130.8949 -68.6765)" width="5" x="111.5" y="47.6"/></g><g><rect fill="#FDE474" height="21.2" transform="matrix(0.3332 0.9429 -0.9429 0.3332 149.7541 -55.3385)" width="5" x="111.5" y="67.6"/></g><g><rect fill="#FDE474" height="21.2" transform="matrix(0.3332 0.9429 -0.9429 0.3332 159.1837 -48.6695)" width="5" x="111.5" y="77.6"/></g><rect fill="#FFFFFF" height="120" width="7" x="104" y="4"/><path d="M4,124h52.4c3.6,0,6-3.7,4.6-7l-5.7-13.3c-0.8-1.8-2.6-3-4.6-3H4V124z" fill="#FFFFFF"/><g><g><path d="M53.1,38.9l0.2,0l-7.8-24.6c-1.3-4.7-5.2-8.2-10-9C29.7,4.5,23.9,4,18,4H4l0,29.4    c14.2,0,28.3,0.9,42.4,2.8C48.9,36.6,51.1,37.5,53.1,38.9z" fill="#CEEAE8"/></g><g opacity="0.8"><path d="M45.2,38.4c-1.1,0-2-0.7-2.4-1.7l-7.1-22.5c-0.4-1.3,0.3-2.7,1.6-3.1c1.3-0.4,2.7,0.3,3.1,1.6l7.1,22.5    c0.4,1.3-0.3,2.7-1.6,3.1C45.7,38.4,45.5,38.4,45.2,38.4z" fill="#FFFFFF"/></g><path d="M4,79.2l48,0.1c5.2,0,7.4-1.2,7.4-6.4l0-20.3l0-1.7c0-7.5-5.5-13.8-13-14.8h0C32.3,34.4,18.2,33.4,4,33.4" fill="#46B8BF"/><path d="M45.5,79.4l4.4,0c0.1,0,0.2,0,0.3,0" fill="#E97867"/><polyline fill="#FFFFFF" points="3.9,52.7 22.7,52.7 22.7,62.6 4,62.6  "/><path d="M59.2,55.2l3-2.5c1,0,1.8,0.8,1.8,1.8v33.2c0,1-0.8,1.8-1.8,1.8H47.4c-1,0-1.8-0.8-1.8-1.8v-8.5h10l3.8-3.8   L59.2,55.2z" fill="#888599"/><path d="M62.1,83.7H47.4c-1,0-1.8-0.8-1.8-1.8v6c0,1,0.8,1.8,1.8,1.8h14.8c1,0,1.8-0.8,1.8-1.8v-6   C64,82.8,63.2,83.7,62.1,83.7z" fill="#FFFFFF"/><path d="M4,70l55.4,0v4.6c0,2.5-2.1,4.6-4.6,4.6L4,79.2" fill="#E1E1E5"/><path d="M7.8,33.5c-1.3,0-2.5,0-3.8,0" fill="#FFFFFF"/><path d="M59.4,52.7H33.5c-1,0-1.8,0.8-1.8,1.8v6.2c0,1,0.8,1.8,1.8,1.8h25.8V52.7z" fill="#E1E1E5"/></g><g><path d="M124,2.5h-20c-0.8,0-1.5,0.7-1.5,1.5v75.5h-37V54.6c0-1.8-1.5-3.3-3.3-3.3h-1.3v-0.2   c0-5.2-2.5-9.9-6.3-12.9L46.9,14c-1.4-5.3-5.8-9.2-11.2-10.1C29.9,3,23.9,2.5,18,2.5H4C3.2,2.5,2.5,3.2,2.5,4S3.2,5.5,4,5.5h14   c5.7,0,11.5,0.4,17.2,1.3c4.2,0.7,7.7,3.8,8.8,8l6.7,21.1c-1.3-0.5-2.7-0.9-4.1-1.1C32.5,32.9,18.2,31.9,4,31.9   c-0.8,0-1.5,0.7-1.5,1.5s0.7,1.5,1.5,1.5c14.1,0,28.3,0.9,42.2,2.8c6.7,0.9,11.7,6.6,11.7,13.3v0.2H33.5c-1.8,0-3.3,1.5-3.3,3.3   v6.2c0,1.8,1.5,3.3,3.3,3.3h25.8c0.8,0,1.5-0.7,1.5-1.5v-8.3h1.3c0.2,0,0.3,0.2,0.3,0.3v33.2c0,0.2-0.2,0.3-0.3,0.3H47.4   c-0.2,0-0.3-0.2-0.3-0.3v-7.1l7.7,0c3.4,0,6.1-2.7,6.1-6.1V70c0-0.8-0.7-1.5-1.5-1.5l-55.2,0h0c-0.8,0-1.5,0.7-1.5,1.5   s0.7,1.5,1.5,1.5l53.8,0v3.1c0,1.7-1.4,3.1-3.1,3.1L4,77.7c0,0,0,0,0,0c-0.8,0-1.5,0.7-1.5,1.5s0.7,1.5,1.5,1.5l40,0v7.1   c0,1.8,1.5,3.3,3.3,3.3h14.8c1.4,0,2.5-0.8,3.1-2l37.3,3.2V124c0,0.8,0.7,1.5,1.5,1.5h20c0.8,0,1.5-0.7,1.5-1.5V4   C125.5,3.2,124.8,2.5,124,2.5z M57.9,61.1H33.5c-0.2,0-0.3-0.2-0.3-0.3v-6.2c0-0.2,0.2-0.3,0.3-0.3h24.3V61.1z M65.5,86.2v-3.7h37   v6.9L65.5,86.2z M122.5,122.5h-17V91V81V5.5h17V122.5z" fill="#454B54"/><path d="M22.7,64.1c0.8,0,1.5-0.7,1.5-1.5v-9.8c0-0.8-0.7-1.5-1.5-1.5H4c-0.8,0-1.5,0.7-1.5,1.5s0.7,1.5,1.5,1.5   h17.2v8.3C21.2,63.4,21.9,64.1,22.7,64.1z" fill="#454B54"/></g></svg>