<?xml version="1.0" encoding="iso-8859-1"?>
<!-- Generator: Adobe Illustrator 19.0.0, SVG Export Plug-In . SVG Version: 6.00 Build 0)  -->
<svg version="1.1" id="Capa_1" xmlns="http://www.w3.org/2000/svg" xmlns:xlink="http://www.w3.org/1999/xlink" x="0px" y="0px"
	 viewBox="0 0 511.624 511.624" style="enable-background:new 0 0 511.624 511.624;" xml:space="preserve">
<path style="fill:#F3F3F3;" d="M349.867,387.493c0,0,129.067-18.133,144-18.133c14.933,0,16-18.133,16-41.6
	c0-24.533-12.8-105.6-12.8-105.6c-11.733-21.333-40.533-68.267-40.533-68.267c11.733-5.333,18.133-14.933,7.467-14.933
	c-26.667-1.067-149.333-4.267-189.867,0c-48,6.4-97.067,40.533-119.467,62.933s-40.533,25.6-40.533,25.6S80,234.959,44.8,242.426
	c-34.133,7.467-36.267,39.467-36.267,39.467l0,0C3.2,285.093,0,290.426,0,295.759l1.067,46.933C1.067,369.359,32,376.826,32,376.826
	l130.133,10.667L349.867,387.493L349.867,387.493z"/>
<path style="fill:#344A5E;" d="M160,321.359c-29.867-29.867-78.933-29.867-109.867,0c-14.933,14.933-22.4,34.133-22.4,53.333
	c2.133,1.067,4.267,1.067,4.267,1.067l130.133,10.667h19.2C184.533,364.026,178.133,339.493,160,321.359z"/>
<g>
	<path style="fill:#8AD7F8;" d="M484.267,230.693c0-1.067-1.067-2.133-1.067-3.2c-11.733-21.333-38.4-65.067-39.467-65.067
		l-5.333-9.6c-18.133,0-42.667,0-100.267,0v77.867L484.267,230.693L484.267,230.693z"/>
	<path style="fill:#8AD7F8;" d="M312.533,230.693v-77.867c-19.2,0-29.867,1.067-35.2,2.133
		c-42.667,5.333-89.6,37.333-109.867,58.667c-7.467,7.467-14.933,13.867-21.333,18.133h166.4V230.693z"/>
</g>
<path style="fill:#344A5E;" d="M474.667,370.426c-1.067-18.133-8.533-35.2-22.4-49.067c-29.867-29.867-78.933-29.867-109.867,0
	c-18.133,18.133-25.6,42.667-21.333,66.133h29.867C349.867,387.493,434.133,375.759,474.667,370.426z"/>
<path style="fill:#FFD15C;" d="M72.533,238.159c-16,27.733-64,44.8-64,44.8s2.133-32,36.267-39.467
	C52.267,241.359,61.867,239.226,72.533,238.159z"/>
<circle style="fill:#415A6B;" cx="104.533" cy="375.759" r="61.867"/>
<circle style="fill:#E8EAE9;" cx="104.533" cy="375.759" r="29.867"/>
<g>
	<circle style="fill:#415A6B;" cx="396.8" cy="375.759" r="61.867"/>
	<path style="fill:#415A6B;" d="M293.333,260.559H265.6c-3.2,0-5.333-2.133-5.333-5.333l0,0c0-3.2,2.133-5.333,5.333-5.333h27.733
		c3.2,0,5.333,2.133,5.333,5.333l0,0C298.667,257.359,296.533,260.559,293.333,260.559z"/>
</g>
<path style="fill:#F3705A;" d="M508.8,306.426c6.4,2.133,1.067-59.733-7.467-58.667H486.4c-6.4,0-11.733,6.4-10.667,12.8
	C480,274.426,488.533,296.826,508.8,306.426z"/>
<circle style="fill:#E8EAE9;" cx="396.8" cy="375.759" r="29.867"/>
<path style="fill:#F05540;" d="M275.2,138.959c-18.133,2.133-37.333,8.533-54.4,17.067v230.4h69.333V137.893
	C284.8,137.893,279.467,138.959,275.2,138.959z"/>
<g>
	<path style="fill:#F3705A;" d="M327.467,273.359c0,0-2.133-8.533-7.467-19.2c-2.133-5.333-6.4-10.667-10.667-16s-9.6-9.6-16-14.933
		c-7.467-5.333-14.933-11.733-22.4-19.2c-7.467-8.533-12.8-17.067-16-25.6s-4.267-16-5.333-21.333c0-5.333,0-8.533,0-8.533h37.333
		c0,0,0,1.067,0,4.267c0,3.2,1.067,6.4,2.133,10.667c2.133,4.267,4.267,9.6,8.533,13.867s10.667,9.6,18.133,14.933
		c7.467,5.333,16,12.8,22.4,21.333c6.4,8.533,11.733,16,14.933,23.467c3.2,7.467,5.333,12.8,7.467,17.067
		c1.067,4.267,2.133,6.4,2.133,6.4s-6.4-3.2-12.8-6.4c-6.4-3.2-12.8-5.333-12.8-5.333s-2.133,6.4-5.333,11.733
		C330.667,268.026,327.467,273.359,327.467,273.359z"/>
	<path style="fill:#F3705A;" d="M139.733,225.359c0,0,1.067-2.133,4.267-4.267c3.2-3.2,7.467-6.4,12.8-10.667
		c10.667-8.533,25.6-17.067,40.533-23.467c7.467-3.2,11.733-6.4,14.933-8.533c2.133-2.133,3.2-4.267,3.2-7.467
		c1.067-3.2,1.067-7.467,1.067-10.667c0-3.2,0-5.333,0-5.333l37.333-1.067c0,0,0,2.133,0,5.333c0,4.267,0,9.6-1.067,18.133
		c-1.067,4.267-2.133,8.533-4.267,13.867s-6.4,9.6-9.6,13.867c-8.533,7.467-17.067,11.733-24.533,16
		c-13.867,6.4-26.667,13.867-34.133,19.2c-7.467,6.4-11.733,10.667-11.733,10.667s-1.067-5.333-2.133-11.733
		c-1.067-6.4,0-11.733,0-11.733s-6.4-1.067-12.8-1.067C146.133,225.359,139.733,225.359,139.733,225.359z"/>
	<path style="fill:#F3705A;" d="M261.333,144.293c2.133,3.2-70.4,49.067-102.4,32c-29.867-13.867-18.133-33.067-13.867-59.733
		c5.333-27.733,3.2-51.2,28.8-39.467C197.333,92.026,260.267,147.493,261.333,144.293z"/>
</g>
<path style="fill:#F05540;" d="M261.333,144.293c0,9.6-115.2-17.067-112-51.2c3.2-14.933,7.467-23.467,24.533-16
	C197.333,92.026,260.267,147.493,261.333,144.293z"/>
<path style="fill:#F3705A;" d="M244.267,144.293c-2.133,3.2,70.4,49.067,102.4,32c29.867-13.867,18.133-33.067,13.867-59.733
	c-5.333-27.733-3.2-51.2-28.8-39.467C308.267,92.026,245.333,147.493,244.267,144.293z"/>
<path style="fill:#F05540;" d="M244.267,144.293c0,9.6,115.2-17.067,112-51.2c-3.2-14.933-7.467-23.467-24.533-16
	C308.267,92.026,245.333,147.493,244.267,144.293z"/>
<path style="fill:#FFD15C;" d="M275.2,164.559c-11.733,12.8-33.067,12.8-44.8,0c0-13.867,1.067-27.733,1.067-41.6
	c11.733-10.667,29.867-10.667,41.6,0C274.133,136.826,274.133,150.693,275.2,164.559z"/>
<g>
</g>
<g>
</g>
<g>
</g>
<g>
</g>
<g>
</g>
<g>
</g>
<g>
</g>
<g>
</g>
<g>
</g>
<g>
</g>
<g>
</g>
<g>
</g>
<g>
</g>
<g>
</g>
<g>
</g>
</svg>
